<svg xmlns="http://www.w3.org/2000/svg" width="512" height="512" viewBox="0 0 512 512"><path d="M256.333 428q9 0 15-6L392 301.333 422.333 271q6-6 6-15t-6-15L392 210.667 271.333 90q-6-6-15-6t-15 6L211 120.333q-6 6-6 15t6 15l63 63H106.667q-8.667 0-15 6.334-6.334 6.333-6.334 15v42.666q0 8.667 6.334 15 6.333 6.334 15 6.334H274l-63 63q-6.333 6.333-6.333 15 0 8.666 6.333 15L241.333 422q6 6 15 6zM256 512q-69.667 0-128.5-34.333-58.833-34.334-93.167-93.167Q0 325.667 0 256t34.333-128.5Q68.667 68.667 127.5 34.333 186.333 0 256 0t128.5 34.333q58.833 34.334 93.167 93.167Q512 186.333 512 256t-34.333 128.5q-34.334 58.833-93.167 93.167Q325.667 512 256 512z"/></svg>